<?xml version="1.0" standalone="no"?>
<!DOCTYPE svg PUBLIC "-//W3C//DTD SVG 20010904//EN"
 "http://www.w3.org/TR/2001/REC-SVG-20010904/DTD/svg10.dtd">
<svg version="1.0" xmlns="http://www.w3.org/2000/svg"
 width="422.000000pt" height="422.000000pt" viewBox="0 0 422.000000 422.000000"
 preserveAspectRatio="xMidYMid meet">
<metadata>
Created by potrace 1.14, written by Peter Selinger 2001-2017
</metadata>
<g transform="translate(0.000000,422.000000) scale(0.100000,-0.100000)"
fill="#000000" stroke="none">
<path d="M1978 4075 c-2 -1 -32 -5 -68 -9 -51 -5 -143 -20 -157 -25 -2 -1 -6
-2 -10 -2 -74 -11 -119 -22 -130 -31 -7 -6 -13 -8 -13 -5 0 7 -189 -56 -240
-79 -19 -9 -51 -24 -70 -33 -19 -9 -37 -16 -40 -17 -15 -2 -60 -28 -60 -35 0
-4 -13 -10 -30 -14 -16 -4 -30 -11 -30 -16 0 -5 -5 -9 -10 -9 -9 0 -89 -50
-125 -78 -5 -4 -33 -24 -62 -45 -93 -68 -249 -215 -318 -301 -16 -20 -40 -48
-53 -61 -12 -13 -22 -27 -22 -30 0 -3 -5 -11 -10 -18 -35 -42 -80 -107 -73
-107 4 0 3 -4 -3 -8 -35 -24 -191 -347 -209 -432 -2 -8 -4 -16 -5 -17 -2 -2
-3 -6 -5 -10 -1 -5 -5 -15 -8 -23 -20 -48 -58 -238 -76 -375 -9 -72 -7 -401 3
-445 3 -14 9 -45 12 -70 3 -25 12 -74 21 -110 8 -36 16 -74 18 -84 3 -10 10
-35 17 -55 7 -20 13 -38 13 -41 1 -7 26 -83 32 -100 4 -8 5 -18 5 -22 -1 -5 2
-8 8 -8 5 0 10 -8 10 -18 0 -10 3 -22 8 -26 4 -4 7 -11 7 -14 1 -22 122 -246
161 -299 13 -17 24 -36 24 -41 0 -6 4 -12 8 -14 5 -2 20 -20 33 -40 59 -87
215 -253 324 -343 33 -27 63 -54 67 -60 4 -5 8 -7 8 -2 0 4 9 -1 19 -10 32
-30 50 -43 56 -43 5 0 93 -57 120 -78 39 -30 345 -167 345 -155 0 3 6 1 13 -5
7 -6 31 -16 52 -21 83 -22 251 -61 283 -66 167 -26 492 -26 623 1 13 2 40 7
59 10 19 3 62 12 95 21 33 8 65 16 70 17 6 1 15 4 20 8 6 3 26 9 45 13 19 4
41 12 48 17 6 6 12 8 12 5 0 -11 252 102 325 146 58 34 222 144 235 157 9 8
34 29 55 45 39 30 202 189 240 236 49 58 145 189 140 189 -4 0 0 7 9 15 19 20
107 175 135 240 12 28 26 59 32 69 6 10 31 78 54 150 40 118 51 160 59 206 5
30 18 106 22 125 26 133 25 429 -1 605 -36 233 -159 565 -275 736 -16 25 -30
47 -30 50 0 3 -5 10 -10 17 -6 7 -32 41 -58 77 -96 133 -251 289 -387 390 -33
25 -63 49 -67 55 -5 7 -8 7 -8 0 0 -5 -5 -2 -11 8 -5 9 -15 17 -20 17 -6 0
-29 12 -52 28 -23 15 -51 33 -62 40 -20 13 -185 95 -195 97 -3 1 -21 8 -40 17
-33 14 -109 41 -120 43 -3 0 -9 3 -15 6 -13 8 -201 56 -245 63 -96 14 -117 18
-140 22 -25 6 -377 13 -382 9z"/>
</g>
</svg>
